<svg xmlns="http://www.w3.org/2000/svg" viewBox="0 0 64 64">
  <defs>
    <linearGradient id="bg" x1="10" y1="8" x2="54" y2="58" gradientUnits="userSpaceOnUse">
      <stop stop-color="#061B36"/>
      <stop offset="0.58" stop-color="#0A2A78"/>
      <stop offset="1" stop-color="#5B92E5"/>
    </linearGradient>
  </defs>
  <circle cx="32" cy="32" r="30" fill="url(#bg)"/>
  <g fill="none" stroke="#EAF5FD" stroke-width="2" opacity="0.95">
    <path d="M16 30c6-10 23-16 34-6"/>
    <path d="M14 38c9 6 25 8 38-2"/>
    <path d="M24 13c-6 14-5 27 5 39"/>
    <path d="M40 12c6 14 5 27-5 40"/>
  </g>
  <path d="M17 49 32 37l15 12" fill="none" stroke="#FFFFFF" stroke-width="3" stroke-linecap="round" stroke-linejoin="round"/>
  <path d="M41 21 44 27 50 29 44 32 41 38 38 32 32 29 38 27Z" fill="#FFFFFF"/>
</svg>
